# Blender v2.78 (sub 0) OBJ File: ''
# www.blender.org
mtllib dome.mtl
o Z_Function
v -1.000000 -1.000000 1.000000
v -1.000000 -0.751111 0.866667
v -1.000000 -0.537778 0.733333
v -1.000000 -0.360000 0.600000
v -1.000000 -0.217778 0.466667
v -1.000000 -0.111111 0.333333
v -1.000000 -0.040000 0.200000
v -1.000000 -0.004444 0.066667
v -1.000000 -0.004444 -0.066667
v -1.000000 -0.040000 -0.200000
v -1.000000 -0.111111 -0.333333
v -1.000000 -0.217778 -0.466667
v -1.000000 -0.360000 -0.600000
v -1.000000 -0.537778 -0.733333
v -1.000000 -0.751111 -0.866667
v -1.000000 -1.000000 -1.000000
v -0.866667 -0.751111 1.000000
v -0.866667 -0.502222 0.866667
v -0.866667 -0.288889 0.733333
v -0.866667 -0.111111 0.600000
v -0.866667 0.031111 0.466667
v -0.866667 0.137778 0.333333
v -0.866667 0.208889 0.200000
v -0.866667 0.244444 0.066667
v -0.866667 0.244444 -0.066667
v -0.866667 0.208889 -0.200000
v -0.866667 0.137778 -0.333333
v -0.866667 0.031111 -0.466667
v -0.866667 -0.111111 -0.600000
v -0.866667 -0.288889 -0.733333
v -0.866667 -0.502222 -0.866667
v -0.866667 -0.751111 -1.000000
v -0.733333 -0.537778 1.000000
v -0.733333 -0.288889 0.866667
v -0.733333 -0.075556 0.733333
v -0.733333 0.102222 0.600000
v -0.733333 0.244444 0.466667
v -0.733333 0.351111 0.333333
v -0.733333 0.422222 0.200000
v -0.733333 0.457778 0.066667
v -0.733333 0.457778 -0.066667
v -0.733333 0.422222 -0.200000
v -0.733333 0.351111 -0.333333
v -0.733333 0.244444 -0.466667
v -0.733333 0.102222 -0.600000
v -0.733333 -0.075556 -0.733333
v -0.733333 -0.288889 -0.866667
v -0.733333 -0.537778 -1.000000
v -0.600000 -0.360000 1.000000
v -0.600000 -0.111111 0.866667
v -0.600000 0.102222 0.733333
v -0.600000 0.280000 0.600000
v -0.600000 0.422222 0.466667
v -0.600000 0.528889 0.333333
v -0.600000 0.600000 0.200000
v -0.600000 0.635556 0.066667
v -0.600000 0.635556 -0.066667
v -0.600000 0.600000 -0.200000
v -0.600000 0.528889 -0.333333
v -0.600000 0.422222 -0.466667
v -0.600000 0.280000 -0.600000
v -0.600000 0.102222 -0.733333
v -0.600000 -0.111111 -0.866667
v -0.600000 -0.360000 -1.000000
v -0.466667 -0.217778 1.000000
v -0.466667 0.031111 0.866667
v -0.466667 0.244444 0.733333
v -0.466667 0.422222 0.600000
v -0.466667 0.564444 0.466667
v -0.466667 0.671111 0.333333
v -0.466667 0.742222 0.200000
v -0.466667 0.777778 0.066667
v -0.466667 0.777778 -0.066667
v -0.466667 0.742222 -0.200000
v -0.466667 0.671111 -0.333333
v -0.466667 0.564444 -0.466667
v -0.466667 0.422222 -0.600000
v -0.466667 0.244444 -0.733333
v -0.466667 0.031111 -0.866667
v -0.466667 -0.217778 -1.000000
v -0.333333 -0.111111 1.000000
v -0.333333 0.137778 0.866667
v -0.333333 0.351111 0.733333
v -0.333333 0.528889 0.600000
v -0.333333 0.671111 0.466667
v -0.333333 0.777778 0.333333
v -0.333333 0.848889 0.200000
v -0.333333 0.884444 0.066667
v -0.333333 0.884444 -0.066667
v -0.333333 0.848889 -0.200000
v -0.333333 0.777778 -0.333333
v -0.333333 0.671111 -0.466667
v -0.333333 0.528889 -0.600000
v -0.333333 0.351111 -0.733333
v -0.333333 0.137778 -0.866667
v -0.333333 -0.111111 -1.000000
v -0.200000 -0.040000 1.000000
v -0.200000 0.208889 0.866667
v -0.200000 0.422222 0.733333
v -0.200000 0.600000 0.600000
v -0.200000 0.742222 0.466667
v -0.200000 0.848889 0.333333
v -0.200000 0.920000 0.200000
v -0.200000 0.955556 0.066667
v -0.200000 0.955556 -0.066667
v -0.200000 0.920000 -0.200000
v -0.200000 0.848889 -0.333333
v -0.200000 0.742222 -0.466667
v -0.200000 0.600000 -0.600000
v -0.200000 0.422222 -0.733333
v -0.200000 0.208889 -0.866667
v -0.200000 -0.040000 -1.000000
v -0.066667 -0.004444 1.000000
v -0.066667 0.244444 0.866667
v -0.066667 0.457778 0.733333
v -0.066667 0.635556 0.600000
v -0.066667 0.777778 0.466667
v -0.066667 0.884444 0.333333
v -0.066667 0.955556 0.200000
v -0.066667 0.991111 0.066667
v -0.066667 0.991111 -0.066667
v -0.066667 0.955556 -0.200000
v -0.066667 0.884444 -0.333333
v -0.066667 0.777778 -0.466667
v -0.066667 0.635556 -0.600000
v -0.066667 0.457778 -0.733333
v -0.066667 0.244444 -0.866667
v -0.066667 -0.004444 -1.000000
v 0.066667 -0.004444 1.000000
v 0.066667 0.244444 0.866667
v 0.066667 0.457778 0.733333
v 0.066667 0.635556 0.600000
v 0.066667 0.777778 0.466667
v 0.066667 0.884444 0.333333
v 0.066667 0.955556 0.200000
v 0.066667 0.991111 0.066667
v 0.066667 0.991111 -0.066667
v 0.066667 0.955556 -0.200000
v 0.066667 0.884444 -0.333333
v 0.066667 0.777778 -0.466667
v 0.066667 0.635556 -0.600000
v 0.066667 0.457778 -0.733333
v 0.066667 0.244444 -0.866667
v 0.066667 -0.004444 -1.000000
v 0.200000 -0.040000 1.000000
v 0.200000 0.208889 0.866667
v 0.200000 0.422222 0.733333
v 0.200000 0.600000 0.600000
v 0.200000 0.742222 0.466667
v 0.200000 0.848889 0.333333
v 0.200000 0.920000 0.200000
v 0.200000 0.955556 0.066667
v 0.200000 0.955556 -0.066667
v 0.200000 0.920000 -0.200000
v 0.200000 0.848889 -0.333333
v 0.200000 0.742222 -0.466667
v 0.200000 0.600000 -0.600000
v 0.200000 0.422222 -0.733333
v 0.200000 0.208889 -0.866667
v 0.200000 -0.040000 -1.000000
v 0.333333 -0.111111 1.000000
v 0.333333 0.137778 0.866667
v 0.333333 0.351111 0.733333
v 0.333333 0.528889 0.600000
v 0.333333 0.671111 0.466667
v 0.333333 0.777778 0.333333
v 0.333333 0.848889 0.200000
v 0.333333 0.884444 0.066667
v 0.333333 0.884444 -0.066667
v 0.333333 0.848889 -0.200000
v 0.333333 0.777778 -0.333333
v 0.333333 0.671111 -0.466667
v 0.333333 0.528889 -0.600000
v 0.333333 0.351111 -0.733333
v 0.333333 0.137778 -0.866667
v 0.333333 -0.111111 -1.000000
v 0.466667 -0.217778 1.000000
v 0.466667 0.031111 0.866667
v 0.466667 0.244444 0.733333
v 0.466667 0.422222 0.600000
v 0.466667 0.564444 0.466667
v 0.466667 0.671111 0.333333
v 0.466667 0.742222 0.200000
v 0.466667 0.777778 0.066667
v 0.466667 0.777778 -0.066667
v 0.466667 0.742222 -0.200000
v 0.466667 0.671111 -0.333333
v 0.466667 0.564444 -0.466667
v 0.466667 0.422222 -0.600000
v 0.466667 0.244444 -0.733333
v 0.466667 0.031111 -0.866667
v 0.466667 -0.217778 -1.000000
v 0.600000 -0.360000 1.000000
v 0.600000 -0.111111 0.866667
v 0.600000 0.102222 0.733333
v 0.600000 0.280000 0.600000
v 0.600000 0.422222 0.466667
v 0.600000 0.528889 0.333333
v 0.600000 0.600000 0.200000
v 0.600000 0.635556 0.066667
v 0.600000 0.635556 -0.066667
v 0.600000 0.600000 -0.200000
v 0.600000 0.528889 -0.333333
v 0.600000 0.422222 -0.466667
v 0.600000 0.280000 -0.600000
v 0.600000 0.102222 -0.733333
v 0.600000 -0.111111 -0.866667
v 0.600000 -0.360000 -1.000000
v 0.733333 -0.537778 1.000000
v 0.733333 -0.288889 0.866667
v 0.733333 -0.075556 0.733333
v 0.733333 0.102222 0.600000
v 0.733333 0.244444 0.466667
v 0.733333 0.351111 0.333333
v 0.733333 0.422222 0.200000
v 0.733333 0.457778 0.066667
v 0.733333 0.457778 -0.066667
v 0.733333 0.422222 -0.200000
v 0.733333 0.351111 -0.333333
v 0.733333 0.244444 -0.466667
v 0.733333 0.102222 -0.600000
v 0.733333 -0.075556 -0.733333
v 0.733333 -0.288889 -0.866667
v 0.733333 -0.537778 -1.000000
v 0.866667 -0.751111 1.000000
v 0.866667 -0.502222 0.866667
v 0.866667 -0.288889 0.733333
v 0.866667 -0.111111 0.600000
v 0.866667 0.031111 0.466667
v 0.866667 0.137778 0.333333
v 0.866667 0.208889 0.200000
v 0.866667 0.244444 0.066667
v 0.866667 0.244444 -0.066667
v 0.866667 0.208889 -0.200000
v 0.866667 0.137778 -0.333333
v 0.866667 0.031111 -0.466667
v 0.866667 -0.111111 -0.600000
v 0.866667 -0.288889 -0.733333
v 0.866667 -0.502222 -0.866667
v 0.866667 -0.751111 -1.000000
v 1.000000 -1.000000 1.000000
v 1.000000 -0.751111 0.866667
v 1.000000 -0.537778 0.733333
v 1.000000 -0.360000 0.600000
v 1.000000 -0.217778 0.466667
v 1.000000 -0.111111 0.333333
v 1.000000 -0.040000 0.200000
v 1.000000 -0.004444 0.066667
v 1.000000 -0.004444 -0.066667
v 1.000000 -0.040000 -0.200000
v 1.000000 -0.111111 -0.333333
v 1.000000 -0.217778 -0.466667
v 1.000000 -0.360000 -0.600000
v 1.000000 -0.537778 -0.733333
v 1.000000 -0.751111 -0.866667
v 1.000000 -1.000000 -1.000000
vn -0.6613 0.3542 0.6613
vn -0.7033 0.3768 0.6028
vn -0.7459 0.3996 0.5328
vn -0.7873 0.4217 0.4499
vn -0.8246 0.4418 0.3534
vn -0.8548 0.4579 0.2442
vn -0.8746 0.4685 0.1249
vn -0.8815 0.4722 0.0000
vn -0.8746 0.4685 -0.1249
vn -0.8548 0.4579 -0.2442
vn -0.8246 0.4418 -0.3534
vn -0.7873 0.4217 -0.4499
vn -0.7459 0.3996 -0.5328
vn -0.7033 0.3768 -0.6028
vn -0.6613 0.3542 -0.6613
vn -0.6028 0.3768 0.7033
vn -0.6468 0.4042 0.6468
vn -0.6925 0.4328 0.5771
vn -0.7382 0.4614 0.4921
vn -0.7807 0.4879 0.3904
vn -0.8160 0.5100 0.2720
vn -0.8397 0.5248 0.1399
vn -0.8480 0.5300 0.0000
vn -0.8397 0.5248 -0.1399
vn -0.8160 0.5100 -0.2720
vn -0.7807 0.4879 -0.3904
vn -0.7382 0.4614 -0.4921
vn -0.6925 0.4328 -0.5771
vn -0.6468 0.4042 -0.6468
vn -0.6028 0.3768 -0.7033
vn -0.5328 0.3996 0.7459
vn -0.5771 0.4328 0.6925
vn -0.6247 0.4685 0.6247
vn -0.6738 0.5054 0.5391
vn -0.7212 0.5409 0.4327
vn -0.7619 0.5715 0.3048
vn -0.7900 0.5925 0.1580
vn -0.8000 0.6000 0.0000
vn -0.7900 0.5925 -0.1580
vn -0.7619 0.5715 -0.3048
vn -0.7212 0.5409 -0.4327
vn -0.6738 0.5054 -0.5391
vn -0.6247 0.4685 -0.6247
vn -0.5771 0.4328 -0.6925
vn -0.5328 0.3996 -0.7459
vn -0.4499 0.4217 0.7873
vn -0.4921 0.4614 0.7382
vn -0.5391 0.5054 0.6738
vn -0.5894 0.5525 0.5894
vn -0.6400 0.6000 0.4800
vn -0.6854 0.6425 0.3427
vn -0.7177 0.6728 0.1794
vn -0.7295 0.6839 0.0000
vn -0.7177 0.6728 -0.1794
vn -0.6854 0.6425 -0.3427
vn -0.6400 0.6000 -0.4800
vn -0.5894 0.5525 -0.5894
vn -0.5391 0.5054 -0.6738
vn -0.4921 0.4614 -0.7382
vn -0.4499 0.4217 -0.7873
vn -0.3534 0.4418 0.8246
vn -0.3904 0.4880 0.7807
vn -0.4327 0.5409 0.7212
vn -0.4800 0.6000 0.6400
vn -0.5298 0.6623 0.5298
vn -0.5767 0.7209 0.3845
vn -0.6116 0.7645 0.2039
vn -0.6247 0.7809 0.0000
vn -0.6116 0.7645 -0.2039
vn -0.5767 0.7209 -0.3845
vn -0.5298 0.6623 -0.5298
vn -0.4800 0.6000 -0.6400
vn -0.4327 0.5409 -0.7212
vn -0.3904 0.4880 -0.7807
vn -0.3534 0.4418 -0.8246
vn -0.2442 0.4579 0.8548
vn -0.2720 0.5100 0.8160
vn -0.3048 0.5715 0.7619
vn -0.3427 0.6425 0.6854
vn -0.3845 0.7209 0.5767
vn -0.4258 0.7984 0.4258
vn -0.4581 0.8589 0.2290
vn -0.4706 0.8824 0.0000
vn -0.4581 0.8589 -0.2290
vn -0.4258 0.7984 -0.4258
vn -0.3845 0.7209 -0.5767
vn -0.3427 0.6425 -0.6854
vn -0.3048 0.5715 -0.7619
vn -0.2720 0.5100 -0.8160
vn -0.2442 0.4579 -0.8548
vn -0.1249 0.4685 0.8746
vn -0.1399 0.5248 0.8397
vn -0.1580 0.5925 0.7900
vn -0.1794 0.6728 0.7177
vn -0.2039 0.7645 0.6116
vn -0.2290 0.8589 0.4581
vn -0.2495 0.9357 0.2495
vn -0.2577 0.9662 0.0000
vn -0.2495 0.9357 -0.2495
vn -0.2290 0.8589 -0.4581
vn -0.2039 0.7645 -0.6116
vn -0.1794 0.6728 -0.7177
vn -0.1580 0.5925 -0.7900
vn -0.1399 0.5248 -0.8397
vn -0.1249 0.4685 -0.8746
vn 0.0000 0.4722 0.8815
vn 0.0000 0.5300 0.8480
vn 0.0000 0.6000 0.8000
vn 0.0000 0.6839 0.7295
vn 0.0000 0.7809 0.6247
vn 0.0000 0.8824 0.4706
vn 0.0000 0.9662 0.2577
vn 0.0000 1.0000 0.0000
vn 0.0000 0.9662 -0.2577
vn 0.0000 0.8824 -0.4706
vn 0.0000 0.7809 -0.6247
vn 0.0000 0.6839 -0.7295
vn 0.0000 0.6000 -0.8000
vn 0.0000 0.5300 -0.8480
vn 0.0000 0.4722 -0.8815
vn 0.1249 0.4685 0.8746
vn 0.1399 0.5248 0.8397
vn 0.1580 0.5925 0.7900
vn 0.1794 0.6728 0.7177
vn 0.2039 0.7645 0.6116
vn 0.2290 0.8589 0.4581
vn 0.2495 0.9357 0.2495
vn 0.2577 0.9662 0.0000
vn 0.2495 0.9357 -0.2495
vn 0.2290 0.8589 -0.4581
vn 0.2039 0.7645 -0.6116
vn 0.1794 0.6728 -0.7177
vn 0.1580 0.5925 -0.7900
vn 0.1399 0.5248 -0.8397
vn 0.1249 0.4685 -0.8746
vn 0.2442 0.4579 0.8548
vn 0.2720 0.5100 0.8160
vn 0.3048 0.5715 0.7619
vn 0.3427 0.6425 0.6854
vn 0.3845 0.7209 0.5767
vn 0.4258 0.7984 0.4258
vn 0.4581 0.8589 0.2290
vn 0.4706 0.8824 0.0000
vn 0.4581 0.8589 -0.2290
vn 0.4258 0.7984 -0.4258
vn 0.3845 0.7209 -0.5767
vn 0.3427 0.6425 -0.6854
vn 0.3048 0.5715 -0.7619
vn 0.2720 0.5100 -0.8160
vn 0.2442 0.4579 -0.8548
vn 0.3534 0.4418 0.8246
vn 0.3904 0.4880 0.7807
vn 0.4327 0.5409 0.7212
vn 0.4800 0.6000 0.6400
vn 0.5298 0.6623 0.5298
vn 0.5767 0.7209 0.3845
vn 0.6116 0.7645 0.2039
vn 0.6247 0.7809 0.0000
vn 0.6116 0.7645 -0.2039
vn 0.5767 0.7209 -0.3845
vn 0.5298 0.6623 -0.5298
vn 0.4800 0.6000 -0.6400
vn 0.4327 0.5409 -0.7212
vn 0.3904 0.4880 -0.7807
vn 0.3534 0.4418 -0.8246
vn 0.4499 0.4217 0.7873
vn 0.4921 0.4614 0.7382
vn 0.5391 0.5054 0.6738
vn 0.5894 0.5525 0.5894
vn 0.6400 0.6000 0.4800
vn 0.6854 0.6425 0.3427
vn 0.7177 0.6728 0.1794
vn 0.7295 0.6839 0.0000
vn 0.7177 0.6728 -0.1794
vn 0.6854 0.6425 -0.3427
vn 0.6400 0.6000 -0.4800
vn 0.5894 0.5525 -0.5894
vn 0.5391 0.5054 -0.6738
vn 0.4921 0.4614 -0.7382
vn 0.4499 0.4217 -0.7873
vn 0.5328 0.3996 0.7459
vn 0.5771 0.4328 0.6925
vn 0.6247 0.4685 0.6247
vn 0.6738 0.5054 0.5391
vn 0.7212 0.5409 0.4327
vn 0.7619 0.5715 0.3048
vn 0.7900 0.5925 0.1580
vn 0.8000 0.6000 0.0000
vn 0.7900 0.5925 -0.1580
vn 0.7619 0.5715 -0.3048
vn 0.7212 0.5409 -0.4327
vn 0.6738 0.5054 -0.5391
vn 0.6247 0.4685 -0.6247
vn 0.5771 0.4328 -0.6925
vn 0.5328 0.3996 -0.7459
vn 0.6028 0.3768 0.7033
vn 0.6468 0.4042 0.6468
vn 0.6925 0.4328 0.5771
vn 0.7382 0.4614 0.4921
vn 0.7807 0.4879 0.3904
vn 0.8160 0.5100 0.2720
vn 0.8397 0.5248 0.1399
vn 0.8480 0.5300 0.0000
vn 0.8397 0.5248 -0.1399
vn 0.8160 0.5100 -0.2720
vn 0.7807 0.4879 -0.3904
vn 0.7382 0.4614 -0.4921
vn 0.6925 0.4328 -0.5771
vn 0.6468 0.4042 -0.6468
vn 0.6028 0.3768 -0.7033
vn 0.6613 0.3542 0.6613
vn 0.7033 0.3768 0.6028
vn 0.7459 0.3996 0.5328
vn 0.7873 0.4217 0.4499
vn 0.8246 0.4417 0.3534
vn 0.8548 0.4579 0.2442
vn 0.8746 0.4685 0.1249
vn 0.8815 0.4722 0.0000
vn 0.8746 0.4685 -0.1249
vn 0.8548 0.4579 -0.2442
vn 0.8246 0.4418 -0.3534
vn 0.7873 0.4217 -0.4499
vn 0.7459 0.3996 -0.5328
vn 0.7033 0.3768 -0.6028
vn 0.6613 0.3542 -0.6613
usemtl None
s off
f 1//1 17//1 18//1 2//1
f 2//2 18//2 19//2 3//2
f 3//3 19//3 20//3 4//3
f 4//4 20//4 21//4 5//4
f 5//5 21//5 22//5 6//5
f 6//6 22//6 23//6 7//6
f 7//7 23//7 24//7 8//7
f 8//8 24//8 25//8 9//8
f 9//9 25//9 26//9 10//9
f 10//10 26//10 27//10 11//10
f 11//11 27//11 28//11 12//11
f 12//12 28//12 29//12 13//12
f 13//13 29//13 30//13 14//13
f 14//14 30//14 31//14 15//14
f 15//15 31//15 32//15 16//15
f 17//16 33//16 34//16 18//16
f 18//17 34//17 35//17 19//17
f 19//18 35//18 36//18 20//18
f 20//19 36//19 37//19 21//19
f 21//20 37//20 38//20 22//20
f 22//21 38//21 39//21 23//21
f 23//22 39//22 40//22 24//22
f 24//23 40//23 41//23 25//23
f 25//24 41//24 42//24 26//24
f 26//25 42//25 43//25 27//25
f 27//26 43//26 44//26 28//26
f 28//27 44//27 45//27 29//27
f 29//28 45//28 46//28 30//28
f 30//29 46//29 47//29 31//29
f 31//30 47//30 48//30 32//30
f 33//31 49//31 50//31 34//31
f 34//32 50//32 51//32 35//32
f 35//33 51//33 52//33 36//33
f 36//34 52//34 53//34 37//34
f 37//35 53//35 54//35 38//35
f 38//36 54//36 55//36 39//36
f 39//37 55//37 56//37 40//37
f 40//38 56//38 57//38 41//38
f 41//39 57//39 58//39 42//39
f 42//40 58//40 59//40 43//40
f 43//41 59//41 60//41 44//41
f 44//42 60//42 61//42 45//42
f 45//43 61//43 62//43 46//43
f 46//44 62//44 63//44 47//44
f 47//45 63//45 64//45 48//45
f 49//46 65//46 66//46 50//46
f 50//47 66//47 67//47 51//47
f 51//48 67//48 68//48 52//48
f 52//49 68//49 69//49 53//49
f 53//50 69//50 70//50 54//50
f 54//51 70//51 71//51 55//51
f 55//52 71//52 72//52 56//52
f 56//53 72//53 73//53 57//53
f 57//54 73//54 74//54 58//54
f 58//55 74//55 75//55 59//55
f 59//56 75//56 76//56 60//56
f 60//57 76//57 77//57 61//57
f 61//58 77//58 78//58 62//58
f 62//59 78//59 79//59 63//59
f 63//60 79//60 80//60 64//60
f 65//61 81//61 82//61 66//61
f 66//62 82//62 83//62 67//62
f 67//63 83//63 84//63 68//63
f 68//64 84//64 85//64 69//64
f 69//65 85//65 86//65 70//65
f 70//66 86//66 87//66 71//66
f 71//67 87//67 88//67 72//67
f 72//68 88//68 89//68 73//68
f 73//69 89//69 90//69 74//69
f 74//70 90//70 91//70 75//70
f 75//71 91//71 92//71 76//71
f 76//72 92//72 93//72 77//72
f 77//73 93//73 94//73 78//73
f 78//74 94//74 95//74 79//74
f 79//75 95//75 96//75 80//75
f 81//76 97//76 98//76 82//76
f 82//77 98//77 99//77 83//77
f 83//78 99//78 100//78 84//78
f 84//79 100//79 101//79 85//79
f 85//80 101//80 102//80 86//80
f 86//81 102//81 103//81 87//81
f 87//82 103//82 104//82 88//82
f 88//83 104//83 105//83 89//83
f 89//84 105//84 106//84 90//84
f 90//85 106//85 107//85 91//85
f 91//86 107//86 108//86 92//86
f 92//87 108//87 109//87 93//87
f 93//88 109//88 110//88 94//88
f 94//89 110//89 111//89 95//89
f 95//90 111//90 112//90 96//90
f 97//91 113//91 114//91 98//91
f 98//92 114//92 115//92 99//92
f 99//93 115//93 116//93 100//93
f 100//94 116//94 117//94 101//94
f 101//95 117//95 118//95 102//95
f 102//96 118//96 119//96 103//96
f 103//97 119//97 120//97 104//97
f 104//98 120//98 121//98 105//98
f 105//99 121//99 122//99 106//99
f 106//100 122//100 123//100 107//100
f 107//101 123//101 124//101 108//101
f 108//102 124//102 125//102 109//102
f 109//103 125//103 126//103 110//103
f 110//104 126//104 127//104 111//104
f 111//105 127//105 128//105 112//105
f 113//106 129//106 130//106 114//106
f 114//107 130//107 131//107 115//107
f 115//108 131//108 132//108 116//108
f 116//109 132//109 133//109 117//109
f 117//110 133//110 134//110 118//110
f 118//111 134//111 135//111 119//111
f 119//112 135//112 136//112 120//112
f 120//113 136//113 137//113 121//113
f 121//114 137//114 138//114 122//114
f 122//115 138//115 139//115 123//115
f 123//116 139//116 140//116 124//116
f 124//117 140//117 141//117 125//117
f 125//118 141//118 142//118 126//118
f 126//119 142//119 143//119 127//119
f 127//120 143//120 144//120 128//120
f 129//121 145//121 146//121 130//121
f 130//122 146//122 147//122 131//122
f 131//123 147//123 148//123 132//123
f 132//124 148//124 149//124 133//124
f 133//125 149//125 150//125 134//125
f 134//126 150//126 151//126 135//126
f 135//127 151//127 152//127 136//127
f 136//128 152//128 153//128 137//128
f 137//129 153//129 154//129 138//129
f 138//130 154//130 155//130 139//130
f 139//131 155//131 156//131 140//131
f 140//132 156//132 157//132 141//132
f 141//133 157//133 158//133 142//133
f 142//134 158//134 159//134 143//134
f 143//135 159//135 160//135 144//135
f 145//136 161//136 162//136 146//136
f 146//137 162//137 163//137 147//137
f 147//138 163//138 164//138 148//138
f 148//139 164//139 165//139 149//139
f 149//140 165//140 166//140 150//140
f 150//141 166//141 167//141 151//141
f 151//142 167//142 168//142 152//142
f 152//143 168//143 169//143 153//143
f 153//144 169//144 170//144 154//144
f 154//145 170//145 171//145 155//145
f 155//146 171//146 172//146 156//146
f 156//147 172//147 173//147 157//147
f 157//148 173//148 174//148 158//148
f 158//149 174//149 175//149 159//149
f 159//150 175//150 176//150 160//150
f 161//151 177//151 178//151 162//151
f 162//152 178//152 179//152 163//152
f 163//153 179//153 180//153 164//153
f 164//154 180//154 181//154 165//154
f 165//155 181//155 182//155 166//155
f 166//156 182//156 183//156 167//156
f 167//157 183//157 184//157 168//157
f 168//158 184//158 185//158 169//158
f 169//159 185//159 186//159 170//159
f 170//160 186//160 187//160 171//160
f 171//161 187//161 188//161 172//161
f 172//162 188//162 189//162 173//162
f 173//163 189//163 190//163 174//163
f 174//164 190//164 191//164 175//164
f 175//165 191//165 192//165 176//165
f 177//166 193//166 194//166 178//166
f 178//167 194//167 195//167 179//167
f 179//168 195//168 196//168 180//168
f 180//169 196//169 197//169 181//169
f 181//170 197//170 198//170 182//170
f 182//171 198//171 199//171 183//171
f 183//172 199//172 200//172 184//172
f 184//173 200//173 201//173 185//173
f 185//174 201//174 202//174 186//174
f 186//175 202//175 203//175 187//175
f 187//176 203//176 204//176 188//176
f 188//177 204//177 205//177 189//177
f 189//178 205//178 206//178 190//178
f 190//179 206//179 207//179 191//179
f 191//180 207//180 208//180 192//180
f 193//181 209//181 210//181 194//181
f 194//182 210//182 211//182 195//182
f 195//183 211//183 212//183 196//183
f 196//184 212//184 213//184 197//184
f 197//185 213//185 214//185 198//185
f 198//186 214//186 215//186 199//186
f 199//187 215//187 216//187 200//187
f 200//188 216//188 217//188 201//188
f 201//189 217//189 218//189 202//189
f 202//190 218//190 219//190 203//190
f 203//191 219//191 220//191 204//191
f 204//192 220//192 221//192 205//192
f 205//193 221//193 222//193 206//193
f 206//194 222//194 223//194 207//194
f 207//195 223//195 224//195 208//195
f 209//196 225//196 226//196 210//196
f 210//197 226//197 227//197 211//197
f 211//198 227//198 228//198 212//198
f 212//199 228//199 229//199 213//199
f 213//200 229//200 230//200 214//200
f 214//201 230//201 231//201 215//201
f 215//202 231//202 232//202 216//202
f 216//203 232//203 233//203 217//203
f 217//204 233//204 234//204 218//204
f 218//205 234//205 235//205 219//205
f 219//206 235//206 236//206 220//206
f 220//207 236//207 237//207 221//207
f 221//208 237//208 238//208 222//208
f 222//209 238//209 239//209 223//209
f 223//210 239//210 240//210 224//210
f 225//211 241//211 242//211 226//211
f 226//212 242//212 243//212 227//212
f 227//213 243//213 244//213 228//213
f 228//214 244//214 245//214 229//214
f 229//215 245//215 246//215 230//215
f 230//216 246//216 247//216 231//216
f 231//217 247//217 248//217 232//217
f 232//218 248//218 249//218 233//218
f 233//219 249//219 250//219 234//219
f 234//220 250//220 251//220 235//220
f 235//221 251//221 252//221 236//221
f 236//222 252//222 253//222 237//222
f 237//223 253//223 254//223 238//223
f 238//224 254//224 255//224 239//224
f 239//225 255//225 256//225 240//225
