# Blender v2.78 (sub 0) OBJ File: ''
# www.blender.org
mtllib hyperboloid.mtl
o Cylinder
v 0.000000 -0.539537 -1.000000
v -0.711471 0.539537 0.702715
v 0.195090 -0.539537 -0.980785
v -0.834893 0.539537 0.550411
v 0.382683 -0.539537 -0.923880
v -0.926231 0.539537 0.376956
v 0.555570 -0.539537 -0.831470
v -0.981974 0.539537 0.189014
v 0.707107 -0.539537 -0.707107
v -0.999980 0.539537 -0.006192
v 0.831470 -0.539537 -0.555570
v -0.979558 0.539537 -0.201159
v 0.923880 -0.539537 -0.382683
v -0.921492 0.539537 -0.388397
v 0.980785 -0.539537 -0.195090
v -0.828014 0.539537 -0.560708
v 1.000000 -0.539537 -0.000000
v -0.702715 0.539537 -0.711471
v 0.980785 -0.539537 0.195090
v -0.550411 0.539537 -0.834894
v 0.923880 -0.539537 0.382683
v -0.376956 0.539537 -0.926232
v 0.831470 -0.539537 0.555570
v -0.189014 0.539537 -0.981975
v 0.707107 -0.539537 0.707107
v 0.006192 0.539537 -0.999981
v 0.555570 -0.539537 0.831470
v 0.201159 0.539537 -0.979559
v 0.382683 -0.539537 0.923880
v 0.388397 0.539537 -0.921493
v 0.195090 -0.539537 0.980785
v 0.560708 0.539537 -0.828014
v -0.000000 -0.539537 1.000000
v 0.711472 0.539537 -0.702715
v -0.195091 -0.539537 0.980785
v 0.834894 0.539537 -0.550412
v -0.382684 -0.539537 0.923879
v 0.926232 0.539537 -0.376956
v -0.555571 -0.539537 0.831469
v 0.981975 0.539537 -0.189014
v -0.707107 -0.539537 0.707106
v 0.999981 0.539537 0.006192
v -0.831470 -0.539537 0.555570
v 0.979559 0.539537 0.201159
v -0.923880 -0.539537 0.382683
v 0.921493 0.539537 0.388396
v -0.980785 -0.539537 0.195089
v 0.828014 0.539537 0.560708
v -1.000000 -0.539537 -0.000001
v 0.702715 0.539537 0.711471
v -0.980785 -0.539537 -0.195091
v 0.550411 0.539537 0.834894
v -0.923879 -0.539537 -0.382684
v 0.376955 0.539537 0.926231
v -0.831469 -0.539537 -0.555571
v 0.189013 0.539537 0.981974
v -0.707106 -0.539537 -0.707108
v -0.006192 0.539537 0.999980
v -0.555569 -0.539537 -0.831470
v -0.201160 0.539537 0.979558
v -0.382682 -0.539537 -0.923880
v -0.388397 0.539537 0.921492
v -0.195089 -0.539537 -0.980786
v -0.560708 0.539537 0.828013
v 0.188682 0.642739 0.358252
v 0.104389 0.700737 0.489666
v 0.679041 0.554404 0.531776
vn -0.8805 0.0000 -0.4741
vn -0.7710 0.0000 -0.6368
vn -0.6320 0.0000 -0.7750
vn -0.4687 0.0000 -0.8834
vn -0.2873 -0.0000 -0.9578
vn -0.0949 -0.0000 -0.9955
vn 0.1011 0.0000 -0.9949
vn 0.2932 -0.0000 -0.9560
vn 0.4741 -0.0000 -0.8805
vn 0.6368 -0.0000 -0.7710
vn 0.7750 -0.0000 -0.6320
vn 0.8834 0.0000 -0.4687
vn 0.9578 -0.0000 -0.2873
vn 0.9955 -0.0000 -0.0949
vn 0.9949 0.0000 0.1011
vn 0.9560 0.0000 0.2932
vn 0.8805 0.0000 0.4741
vn 0.7710 0.0000 0.6368
vn 0.6320 -0.0000 0.7750
vn 0.4687 -0.0000 0.8834
vn 0.2873 0.0000 0.9578
vn 0.0949 0.0000 0.9955
vn -0.1011 -0.0000 0.9949
vn -0.2932 0.0000 0.9560
vn -0.4741 0.0000 0.8805
vn -0.6368 0.0000 0.7710
vn -0.7750 0.0000 0.6320
vn -0.8834 0.0000 0.4687
vn -0.9578 0.0000 0.2873
vn -0.9955 0.0000 0.0949
vn 0.0000 1.0000 0.0000
vn -0.9949 0.0000 -0.1011
vn -0.9560 0.0000 -0.2932
vn 0.0000 -1.0000 -0.0000
usemtl None
s off
f 1//1 2//1 4//1 3//1
f 3//2 4//2 6//2 5//2
f 5//3 6//3 8//3 7//3
f 7//4 8//4 10//4 9//4
f 9//5 10//5 12//5 11//5
f 11//6 12//6 14//6 13//6
f 13//7 14//7 16//7 15//7
f 15//8 16//8 18//8 17//8
f 17//9 18//9 20//9 19//9
f 19//10 20//10 22//10 21//10
f 21//11 22//11 24//11 23//11
f 23//12 24//12 26//12 25//12
f 25//13 26//13 28//13 27//13
f 27//14 28//14 30//14 29//14
f 29//15 30//15 32//15 31//15
f 31//16 32//16 34//16 33//16
f 33//17 34//17 36//17 35//17
f 35//18 36//18 38//18 37//18
f 37//19 38//19 40//19 39//19
f 39//20 40//20 42//20 41//20
f 41//21 42//21 44//21 43//21
f 43//22 44//22 46//22 45//22
f 45//23 46//23 48//23 47//23
f 47//24 48//24 50//24 49//24
f 49//25 50//25 52//25 51//25
f 51//26 52//26 54//26 53//26
f 53//27 54//27 56//27 55//27
f 55//28 56//28 58//28 57//28
f 57//29 58//29 60//29 59//29
f 59//30 60//30 62//30 61//30
f 4//31 2//31 64//31 62//31 60//31 58//31 56//31 54//31 52//31 50//31 48//31 46//31 44//31 42//31 40//31 38//31 36//31 34//31 32//31 30//31 28//31 26//31 24//31 22//31 20//31 18//31 16//31 14//31 12//31 10//31 8//31 6//31
f 61//32 62//32 64//32 63//32
f 63//33 64//33 2//33 1//33
f 1//34 3//34 5//34 7//34 9//34 11//34 13//34 15//34 17//34 19//34 21//34 23//34 25//34 27//34 29//34 31//34 33//34 35//34 37//34 39//34 41//34 43//34 45//34 47//34 49//34 51//34 53//34 55//34 57//34 59//34 61//34 63//34
